<svg xmlns="http://www.w3.org/2000/svg" viewBox="0 0 1600 900" role="img" aria-labelledby="title desc"><title id="title">Spring and autumn in Japan</title><desc id="desc">A simple travel illustration showing cherry blossoms in spring and colorful autumn foliage in Japan.</desc><rect width="1600" height="900" fill="#fff9f3"/><path d="M0 620 Q400 530 800 620 T1600 600 V900 H0Z" fill="#e8f4e9"/><circle cx="400" cy="200" r="105" fill="#ffd7dc"/><circle cx="1200" cy="200" r="105" fill="#f5c86b"/><path d="M400 700 V360 M400 470 L260 350 M400 520 L540 390" stroke="#6d5141" stroke-width="28" fill="none" stroke-linecap="round"/><g fill="#f2a9b7"><circle cx="250" cy="340" r="35"/><circle cx="310" cy="300" r="35"/><circle cx="480" cy="360" r="35"/><circle cx="540" cy="390" r="35"/></g><path d="M1200 700 V350 M1200 470 L1080 360 M1200 520 L1330 400" stroke="#6d5141" stroke-width="28" fill="none" stroke-linecap="round"/><g fill="#e57c4f"><circle cx="1070" cy="350" r="38"/><circle cx="1130" cy="300" r="38"/><circle cx="1300" cy="390" r="38"/><circle cx="1360" cy="350" r="38"/></g><text x="180" y="120" font-family="Arial, sans-serif" font-size="64" font-weight="700" fill="#17324d">Spring • Autumn</text><text x="184" y="180" font-family="Arial, sans-serif" font-size="30" fill="#4c6b7a">Two of Japan's most popular sightseeing seasons</text><text x="320" y="790" font-family="Arial, sans-serif" font-size="36" font-weight="700" fill="#1596c2">Cherry blossoms</text><text x="1090" y="790" font-family="Arial, sans-serif" font-size="36" font-weight="700" fill="#d96b4b">Autumn colors</text></svg>